<mxfile host="app.diagrams.net" modified="2024-06-02T14:01:26.871Z" agent="Mozilla/5.0 (Windows NT 10.0; Win64; x64) AppleWebKit/537.36 (KHTML, like Gecko) Chrome/125.0.0.0 Safari/537.36 Edg/125.0.0.0" etag="6pgYypEvqbqwh7hQgz0F" version="24.4.13" type="github">
  <diagram name="第 1 页" id="qNvCMr3KTSm3E8UUtoCj">
    <mxGraphModel dx="945" dy="554" grid="1" gridSize="10" guides="1" tooltips="1" connect="1" arrows="1" fold="1" page="1" pageScale="1" pageWidth="827" pageHeight="1169" math="0" shadow="0">
      <root>
        <mxCell id="0" />
        <mxCell id="1" parent="0" />
        <mxCell id="eV9CkKkCkILloh0AVYh7-1" value="用户" style="rounded=1;whiteSpace=wrap;html=1;" vertex="1" parent="1">
          <mxGeometry x="250" y="110" width="120" height="80" as="geometry" />
        </mxCell>
        <mxCell id="eV9CkKkCkILloh0AVYh7-2" value="问题响应" style="rounded=1;whiteSpace=wrap;html=1;" vertex="1" parent="1">
          <mxGeometry x="500" y="110" width="120" height="80" as="geometry" />
        </mxCell>
        <mxCell id="eV9CkKkCkILloh0AVYh7-3" value="" style="endArrow=classic;html=1;rounded=0;exitX=1;exitY=0.25;exitDx=0;exitDy=0;entryX=0;entryY=0.25;entryDx=0;entryDy=0;" edge="1" parent="1" source="eV9CkKkCkILloh0AVYh7-1" target="eV9CkKkCkILloh0AVYh7-2">
          <mxGeometry relative="1" as="geometry">
            <mxPoint x="520" y="310" as="sourcePoint" />
            <mxPoint x="620" y="310" as="targetPoint" />
          </mxGeometry>
        </mxCell>
        <mxCell id="eV9CkKkCkILloh0AVYh7-4" value="问题请求" style="edgeLabel;resizable=0;html=1;;align=center;verticalAlign=middle;" connectable="0" vertex="1" parent="eV9CkKkCkILloh0AVYh7-3">
          <mxGeometry relative="1" as="geometry">
            <mxPoint x="1" as="offset" />
          </mxGeometry>
        </mxCell>
        <mxCell id="eV9CkKkCkILloh0AVYh7-5" value="" style="endArrow=classic;html=1;rounded=0;exitX=0;exitY=0.75;exitDx=0;exitDy=0;entryX=1;entryY=0.75;entryDx=0;entryDy=0;" edge="1" parent="1" source="eV9CkKkCkILloh0AVYh7-2" target="eV9CkKkCkILloh0AVYh7-1">
          <mxGeometry relative="1" as="geometry">
            <mxPoint x="500" y="280" as="sourcePoint" />
            <mxPoint x="600" y="280" as="targetPoint" />
          </mxGeometry>
        </mxCell>
        <mxCell id="eV9CkKkCkILloh0AVYh7-6" value="回答转发" style="edgeLabel;resizable=0;html=1;;align=center;verticalAlign=middle;" connectable="0" vertex="1" parent="eV9CkKkCkILloh0AVYh7-5">
          <mxGeometry relative="1" as="geometry" />
        </mxCell>
        <mxCell id="eV9CkKkCkILloh0AVYh7-7" value="聊天AI" style="rounded=1;whiteSpace=wrap;html=1;" vertex="1" parent="1">
          <mxGeometry x="500" y="280" width="120" height="90" as="geometry" />
        </mxCell>
        <mxCell id="eV9CkKkCkILloh0AVYh7-8" value="" style="endArrow=classic;html=1;rounded=0;exitX=0.75;exitY=1;exitDx=0;exitDy=0;entryX=0.75;entryY=0;entryDx=0;entryDy=0;" edge="1" parent="1" source="eV9CkKkCkILloh0AVYh7-2" target="eV9CkKkCkILloh0AVYh7-7">
          <mxGeometry relative="1" as="geometry">
            <mxPoint x="390" y="249.17000000000002" as="sourcePoint" />
            <mxPoint x="490" y="249.17000000000002" as="targetPoint" />
          </mxGeometry>
        </mxCell>
        <mxCell id="eV9CkKkCkILloh0AVYh7-9" value="转发请求" style="edgeLabel;resizable=0;html=1;;align=center;verticalAlign=middle;" connectable="0" vertex="1" parent="eV9CkKkCkILloh0AVYh7-8">
          <mxGeometry relative="1" as="geometry" />
        </mxCell>
        <mxCell id="eV9CkKkCkILloh0AVYh7-10" value="" style="endArrow=classic;html=1;rounded=0;exitX=0.25;exitY=0;exitDx=0;exitDy=0;entryX=0.25;entryY=1;entryDx=0;entryDy=0;" edge="1" parent="1">
          <mxGeometry relative="1" as="geometry">
            <mxPoint x="530" y="280" as="sourcePoint" />
            <mxPoint x="530" y="190" as="targetPoint" />
          </mxGeometry>
        </mxCell>
        <mxCell id="eV9CkKkCkILloh0AVYh7-11" value="回答响应" style="edgeLabel;resizable=0;html=1;;align=center;verticalAlign=middle;" connectable="0" vertex="1" parent="eV9CkKkCkILloh0AVYh7-10">
          <mxGeometry relative="1" as="geometry" />
        </mxCell>
        <mxCell id="eV9CkKkCkILloh0AVYh7-12" value="聊天记录数据库" style="shape=process;whiteSpace=wrap;html=1;backgroundOutline=1;" vertex="1" parent="1">
          <mxGeometry x="707" y="120" width="120" height="60" as="geometry" />
        </mxCell>
        <mxCell id="eV9CkKkCkILloh0AVYh7-13" value="" style="endArrow=classic;html=1;rounded=0;exitX=1;exitY=0.5;exitDx=0;exitDy=0;entryX=0;entryY=0.5;entryDx=0;entryDy=0;" edge="1" parent="1" source="eV9CkKkCkILloh0AVYh7-2" target="eV9CkKkCkILloh0AVYh7-12">
          <mxGeometry relative="1" as="geometry">
            <mxPoint x="530" y="310" as="sourcePoint" />
            <mxPoint x="630" y="310" as="targetPoint" />
          </mxGeometry>
        </mxCell>
        <mxCell id="eV9CkKkCkILloh0AVYh7-14" value="聊天记录" style="edgeLabel;resizable=0;html=1;;align=center;verticalAlign=middle;" connectable="0" vertex="1" parent="eV9CkKkCkILloh0AVYh7-13">
          <mxGeometry relative="1" as="geometry" />
        </mxCell>
        <mxCell id="eV9CkKkCkILloh0AVYh7-15" value="初始化配置" style="rounded=0;whiteSpace=wrap;html=1;" vertex="1" parent="1">
          <mxGeometry x="250" y="295" width="120" height="60" as="geometry" />
        </mxCell>
        <mxCell id="eV9CkKkCkILloh0AVYh7-17" value="" style="endArrow=classic;html=1;rounded=0;exitX=0.5;exitY=1;exitDx=0;exitDy=0;entryX=0.5;entryY=0;entryDx=0;entryDy=0;" edge="1" parent="1" source="eV9CkKkCkILloh0AVYh7-1" target="eV9CkKkCkILloh0AVYh7-15">
          <mxGeometry relative="1" as="geometry">
            <mxPoint x="530" y="310" as="sourcePoint" />
            <mxPoint x="630" y="310" as="targetPoint" />
          </mxGeometry>
        </mxCell>
        <mxCell id="eV9CkKkCkILloh0AVYh7-18" value="初始化" style="edgeLabel;resizable=0;html=1;;align=center;verticalAlign=middle;" connectable="0" vertex="1" parent="eV9CkKkCkILloh0AVYh7-17">
          <mxGeometry relative="1" as="geometry" />
        </mxCell>
        <mxCell id="eV9CkKkCkILloh0AVYh7-20" value="" style="endArrow=classic;html=1;rounded=0;exitX=1;exitY=0.5;exitDx=0;exitDy=0;entryX=0;entryY=0.5;entryDx=0;entryDy=0;" edge="1" parent="1" source="eV9CkKkCkILloh0AVYh7-15" target="eV9CkKkCkILloh0AVYh7-7">
          <mxGeometry relative="1" as="geometry">
            <mxPoint x="530" y="470" as="sourcePoint" />
            <mxPoint x="630" y="470" as="targetPoint" />
          </mxGeometry>
        </mxCell>
        <mxCell id="eV9CkKkCkILloh0AVYh7-21" value="初始化" style="edgeLabel;resizable=0;html=1;;align=center;verticalAlign=middle;" connectable="0" vertex="1" parent="eV9CkKkCkILloh0AVYh7-20">
          <mxGeometry relative="1" as="geometry" />
        </mxCell>
        <mxCell id="eV9CkKkCkILloh0AVYh7-22" value="生成认证URL" style="rounded=0;whiteSpace=wrap;html=1;" vertex="1" parent="1">
          <mxGeometry x="100" y="295" width="120" height="60" as="geometry" />
        </mxCell>
        <mxCell id="eV9CkKkCkILloh0AVYh7-23" value="" style="endArrow=classic;html=1;rounded=0;exitX=0.5;exitY=1;exitDx=0;exitDy=0;entryX=0.5;entryY=1;entryDx=0;entryDy=0;" edge="1" parent="1" source="eV9CkKkCkILloh0AVYh7-22" target="eV9CkKkCkILloh0AVYh7-7">
          <mxGeometry relative="1" as="geometry">
            <mxPoint x="300" y="470" as="sourcePoint" />
            <mxPoint x="570" y="430" as="targetPoint" />
            <Array as="points">
              <mxPoint x="160" y="430" />
              <mxPoint x="560" y="430" />
            </Array>
          </mxGeometry>
        </mxCell>
        <mxCell id="eV9CkKkCkILloh0AVYh7-24" value="WebSocket连接" style="edgeLabel;resizable=0;html=1;;align=center;verticalAlign=middle;" connectable="0" vertex="1" parent="eV9CkKkCkILloh0AVYh7-23">
          <mxGeometry relative="1" as="geometry" />
        </mxCell>
        <mxCell id="eV9CkKkCkILloh0AVYh7-26" value="" style="endArrow=classic;html=1;rounded=0;exitX=0;exitY=0.5;exitDx=0;exitDy=0;entryX=0.5;entryY=0;entryDx=0;entryDy=0;" edge="1" parent="1" source="eV9CkKkCkILloh0AVYh7-1" target="eV9CkKkCkILloh0AVYh7-22">
          <mxGeometry relative="1" as="geometry">
            <mxPoint x="300" y="310" as="sourcePoint" />
            <mxPoint x="120" y="200" as="targetPoint" />
            <Array as="points">
              <mxPoint x="160" y="150" />
            </Array>
          </mxGeometry>
        </mxCell>
        <mxCell id="eV9CkKkCkILloh0AVYh7-27" value="API密钥" style="edgeLabel;resizable=0;html=1;;align=center;verticalAlign=middle;" connectable="0" vertex="1" parent="eV9CkKkCkILloh0AVYh7-26">
          <mxGeometry relative="1" as="geometry">
            <mxPoint y="33" as="offset" />
          </mxGeometry>
        </mxCell>
      </root>
    </mxGraphModel>
  </diagram>
</mxfile>
